<svg width="1024" height="1024" viewBox="0 0 1024 1024" xmlns="http://www.w3.org/2000/svg">
  <!-- Background circle with gradient -->
  <defs>
    <linearGradient id="bgGradient" x1="0%" y1="0%" x2="100%" y2="100%">
      <stop offset="0%" style="stop-color:#1a1a1a;stop-opacity:1" />
      <stop offset="100%" style="stop-color:#000000;stop-opacity:1" />
    </linearGradient>
    <linearGradient id="photoGradient" x1="0%" y1="0%" x2="100%" y2="100%">
      <stop offset="0%" style="stop-color:#4a4a4a;stop-opacity:1" />
      <stop offset="100%" style="stop-color:#2a2a2a;stop-opacity:1" />
    </linearGradient>
  </defs>
  
  <!-- Background -->
  <circle cx="512" cy="512" r="512" fill="url(#bgGradient)"/>
  
  <!-- Photo frames representing collage -->
  <!-- Top left photo -->
  <rect x="200" y="200" width="180" height="240" rx="12" fill="url(#photoGradient)" stroke="#666" stroke-width="2"/>
  <rect x="220" y="220" width="140" height="180" rx="8" fill="#333"/>
  <rect x="240" y="240" width="100" height="140" rx="6" fill="#555"/>
  
  <!-- Top right photo -->
  <rect x="644" y="200" width="180" height="240" rx="12" fill="url(#photoGradient)" stroke="#666" stroke-width="2"/>
  <rect x="664" y="220" width="140" height="180" rx="8" fill="#333"/>
  <rect x="684" y="240" width="100" height="140" rx="6" fill="#555"/>
  
  <!-- Bottom left photo -->
  <rect x="200" y="584" width="180" height="240" rx="12" fill="url(#photoGradient)" stroke="#666" stroke-width="2"/>
  <rect x="220" y="604" width="140" height="180" rx="8" fill="#333"/>
  <rect x="240" y="624" width="100" height="140" rx="6" fill="#555"/>
  
  <!-- Bottom right photo -->
  <rect x="644" y="584" width="180" height="240" rx="12" fill="url(#photoGradient)" stroke="#666" stroke-width="2"/>
  <rect x="664" y="604" width="140" height="180" rx="8" fill="#333"/>
  <rect x="684" y="624" width="100" height="140" rx="6" fill="#555"/>
  
  <!-- Center overlay with plus icon -->
  <circle cx="512" cy="512" r="80" fill="#000" fill-opacity="0.7"/>
  <circle cx="512" cy="512" r="60" fill="#fff" fill-opacity="0.1"/>
  
  <!-- Plus icon -->
  <rect x="480" y="450" width="64" height="16" rx="8" fill="#fff"/>
  <rect x="512" y="418" width="16" height="64" rx="8" fill="#fff"/>
</svg>

